<svg width="268" height="49" viewBox="0 0 268 49" fill="none" xmlns="http://www.w3.org/2000/svg">
<line x1="0.5" y1="2.18557e-08" x2="0.499998" y2="49" stroke="black"/>
<line x1="6.75" y1="3.27835e-08" x2="6.75" y2="49" stroke="black" stroke-width="1.5"/>
<line x1="12.5" y1="6.55671e-08" x2="12.5" y2="49" stroke="black" stroke-width="3"/>
<line x1="20.5" y1="2.18557e-08" x2="20.5" y2="49" stroke="black"/>
<line x1="26.75" y1="3.27835e-08" x2="26.75" y2="49" stroke="black" stroke-width="1.5"/>
<line x1="32.5" y1="6.55671e-08" x2="32.5" y2="49" stroke="black" stroke-width="3"/>
<line x1="40.5" y1="2.18557e-08" x2="40.5" y2="49" stroke="black"/>
<line x1="46.75" y1="3.27835e-08" x2="46.75" y2="49" stroke="black" stroke-width="1.5"/>
<line x1="52.5" y1="6.55671e-08" x2="52.5" y2="49" stroke="black" stroke-width="3"/>
<line x1="60.5" y1="2.18557e-08" x2="60.5" y2="49" stroke="black"/>
<line x1="66.75" y1="3.27835e-08" x2="66.75" y2="49" stroke="black" stroke-width="1.5"/>
<line x1="72.5" y1="6.55671e-08" x2="72.5" y2="49" stroke="black" stroke-width="3"/>
<line x1="88.5" y1="2.18557e-08" x2="88.5" y2="49" stroke="black"/>
<line x1="94.75" y1="3.27835e-08" x2="94.75" y2="49" stroke="black" stroke-width="1.5"/>
<line x1="100.5" y1="6.55671e-08" x2="100.5" y2="49" stroke="black" stroke-width="3"/>
<line x1="108.5" y1="2.18557e-08" x2="108.5" y2="49" stroke="black"/>
<line x1="114.75" y1="3.27835e-08" x2="114.75" y2="49" stroke="black" stroke-width="1.5"/>
<line x1="120.5" y1="6.55671e-08" x2="120.5" y2="49" stroke="black" stroke-width="3"/>
<line x1="128.5" y1="2.18557e-08" x2="128.5" y2="49" stroke="black"/>
<line x1="134.75" y1="3.27835e-08" x2="134.75" y2="49" stroke="black" stroke-width="1.5"/>
<line x1="140.5" y1="6.55671e-08" x2="140.5" y2="49" stroke="black" stroke-width="3"/>
<line x1="148.5" y1="2.18557e-08" x2="148.5" y2="49" stroke="black"/>
<line x1="154.75" y1="3.27835e-08" x2="154.75" y2="49" stroke="black" stroke-width="1.5"/>
<line x1="160.5" y1="6.55671e-08" x2="160.5" y2="49" stroke="black" stroke-width="3"/>
<line x1="168.5" y1="2.18557e-08" x2="168.5" y2="49" stroke="black"/>
<line x1="174.75" y1="3.27835e-08" x2="174.75" y2="49" stroke="black" stroke-width="1.5"/>
<line x1="180.5" y1="6.55671e-08" x2="180.5" y2="49" stroke="black" stroke-width="3"/>
<line x1="188.5" y1="2.18557e-08" x2="188.5" y2="49" stroke="black"/>
<line x1="194.75" y1="3.27835e-08" x2="194.75" y2="49" stroke="black" stroke-width="1.5"/>
<line x1="200.5" y1="6.55671e-08" x2="200.5" y2="49" stroke="black" stroke-width="3"/>
<line x1="208.5" y1="2.18557e-08" x2="208.5" y2="49" stroke="black"/>
<line x1="214.75" y1="3.27835e-08" x2="214.75" y2="49" stroke="black" stroke-width="1.5"/>
<line x1="220.5" y1="6.55671e-08" x2="220.5" y2="49" stroke="black" stroke-width="3"/>
<line x1="228.5" y1="2.18557e-08" x2="228.5" y2="49" stroke="black"/>
<line x1="234.75" y1="3.27835e-08" x2="234.75" y2="49" stroke="black" stroke-width="1.5"/>
<line x1="240.5" y1="6.55671e-08" x2="240.5" y2="49" stroke="black" stroke-width="3"/>
<line x1="251.5" y1="1.09278e-07" x2="251.5" y2="49" stroke="black" stroke-width="5"/>
<line x1="259.5" y1="1.09278e-07" x2="259.5" y2="49" stroke="black" stroke-width="5"/>
<line x1="267.25" y1="1.09278e-08" x2="267.25" y2="49" stroke="black" stroke-width="0.5"/>
</svg>
