<svg width="75" height="53" viewBox="0 0 75 53" fill="none" xmlns="http://www.w3.org/2000/svg">
<g filter="url(#filter0_d_2_1276)">
<rect x="4.15015" y="0.303101" width="66.034" height="43.7368" rx="8" fill="white"/>
<rect x="4.65015" y="0.803101" width="65.034" height="42.7368" rx="7.5" stroke="#CCCCCC"/>
<path d="M59.1785 22.019C59.1785 29.4899 53.0947 35.5343 45.5749 35.5343C42.4008 35.5343 39.4911 34.4455 37.1861 32.6435C40.3602 30.1657 42.363 26.3364 42.363 22.019C42.363 17.7017 40.3225 13.8723 37.1861 11.3945C39.4911 9.59252 42.4008 8.50378 45.5749 8.50378C53.0947 8.50378 59.1785 14.5856 59.1785 22.019Z" fill="#F79E1B"/>
<path d="M37.1861 11.3945C37.1861 11.3945 37.1861 11.3945 37.1861 11.3945C40.3225 13.8723 42.363 17.7017 42.363 22.019C42.363 26.3364 40.3602 30.1657 37.1861 32.6435L37.1481 32.6435C34.0118 30.2032 31.9713 26.3364 31.9713 22.0191C31.9713 17.7017 34.0119 13.8724 37.1482 11.3946C37.1482 11.3946 37.1483 11.3947 37.1482 11.3946L37.1861 11.3945Z" fill="#FF5F00"/>
<path d="M31.9713 22.0191C31.9713 17.7017 34.0119 13.8724 37.1482 11.3946C34.8432 9.59259 31.9336 8.50384 28.7594 8.50384C21.2396 8.50384 15.1558 14.5482 15.1558 22.0191C15.1558 29.49 21.2396 35.5343 28.7594 35.5343C31.9336 35.5343 34.8431 34.4455 37.1481 32.6435C34.0118 30.2032 31.9713 26.3364 31.9713 22.0191Z" fill="#EB001B"/>
</g>
<defs>
<filter id="filter0_d_2_1276" x="0.150146" y="0.303101" width="74.034" height="51.7368" filterUnits="userSpaceOnUse" color-interpolation-filters="sRGB">
<feFlood flood-opacity="0" result="BackgroundImageFix"/>
<feColorMatrix in="SourceAlpha" type="matrix" values="0 0 0 0 0 0 0 0 0 0 0 0 0 0 0 0 0 0 127 0" result="hardAlpha"/>
<feOffset dy="4"/>
<feGaussianBlur stdDeviation="2"/>
<feComposite in2="hardAlpha" operator="out"/>
<feColorMatrix type="matrix" values="0 0 0 0 0 0 0 0 0 0 0 0 0 0 0 0 0 0 0.25 0"/>
<feBlend mode="normal" in2="BackgroundImageFix" result="effect1_dropShadow_2_1276"/>
<feBlend mode="normal" in="SourceGraphic" in2="effect1_dropShadow_2_1276" result="shape"/>
</filter>
</defs>
</svg>
